<svg width="278" height="60" viewBox="0 0 278 60" fill="none" xmlns="http://www.w3.org/2000/svg">
<path d="M100.917 32.7858C100.917 39.7816 95.6397 44.7178 88.2598 44.7178C81.3021 44.7178 75.5568 40.2832 75.5568 31.5505V27.2521C75.5568 18.8396 79.714 12.7261 87.4181 11.3093L98.8007 9.92529V14.4051L88.4915 15.6051C83.8221 16.5202 80.9727 19.4421 80.6921 25.5227C82.4657 22.0488 85.9226 21.1237 89.099 21.1237C95.9203 21.1261 100.917 25.8354 100.917 32.7858ZM95.6861 32.7404C95.6861 28.5354 92.605 25.5178 88.3087 25.5178C83.9663 25.5178 80.8851 28.5354 80.8851 32.7404C80.8851 37.0388 83.9663 40.0085 88.3087 40.0085C92.605 40.0085 95.6861 37.0362 95.6861 32.7404Z" fill="white"/>
<path d="M128.701 34.1571C128.719 33.4084 128.701 32.6924 128.65 32.0017C128.055 24.3101 123.077 20.0747 116.335 20.0747C109.133 20.0747 103.97 25.4218 103.97 32.4655C103.97 39.8671 109.362 44.763 116.711 44.763C122.143 44.763 126.462 41.652 127.957 37.6563H122.802C121.612 39.2344 119.599 40.4218 116.755 40.4218C112.755 40.4218 109.643 37.8579 109.316 34.1571H128.701ZM109.321 30.179C109.597 26.7982 112.528 24.3277 116.338 24.3277C120.294 24.3277 123.08 26.8411 123.221 30.179H109.321Z" fill="white"/>
<path d="M130.497 39.7791C132.366 39.6884 134.324 38.6825 134.324 34.8885V20.5791H153.344V44.3069H148.067V25.2431H139.51V34.9817C139.51 41.564 135.541 44.5363 130.45 44.4455L130.497 39.7791Z" fill="white"/>
<path d="M167.763 31.6439L179.375 20.5766H173.228L166.808 26.6799L163.194 30.1161V20.5766H163.112H158.226H157.914V44.3044H158.226H163.112H163.194V33.1766L166.752 37.0968L173.276 44.3044H179.418L167.763 31.6439Z" fill="white"/>
<path d="M200.489 20.5539L199.848 24.0782C197.769 21.5876 194.193 20.095 190.976 20.095C190.936 20.095 190.904 20.1001 190.865 20.1001C190.809 20.1001 190.754 20.095 190.695 20.095C187.197 20.095 184.349 21.348 182.311 23.3876C182.213 23.4833 182.111 23.5791 182.016 23.6774C181.958 23.7379 181.905 23.806 181.85 23.869C179.887 26.0447 178.787 29.0069 178.787 32.3926C178.787 32.4077 178.789 32.4228 178.789 32.4379C178.789 32.4531 178.787 32.4682 178.787 32.4833C178.787 35.869 179.887 38.8338 181.85 41.0069C181.907 41.0699 181.958 41.1355 182.016 41.1985C182.111 41.2993 182.213 41.3926 182.311 41.4884C184.349 43.5279 187.197 44.7809 190.695 44.7809C190.751 44.7809 190.809 44.7758 190.865 44.7758C190.904 44.7758 190.936 44.7809 190.976 44.7809C194.193 44.7809 197.769 43.2884 199.848 40.7976V44.322H205.218V44.2766V20.6018V20.5564H200.489V20.5539ZM192.048 40.0312C187.473 40.0312 184.203 36.8774 184.203 32.443C184.203 28.0085 187.473 24.8547 192.048 24.8547C196.579 24.8547 199.802 28.1472 199.802 32.443C199.802 36.7388 196.579 40.0312 192.048 40.0312Z" fill="white"/>
<path d="M209.779 20.5539V20.5993V54.9633V55.0085H215.15V40.8001C217.229 43.2909 220.805 44.7834 224.022 44.7834C224.06 44.7834 224.094 44.7783 224.133 44.7783C224.189 44.7783 224.243 44.7834 224.303 44.7834C227.801 44.7834 230.647 43.5304 232.686 41.4909C232.784 41.3952 232.887 41.2993 232.982 41.201C233.038 41.1406 233.093 41.0725 233.147 41.0095C235.111 38.8338 236.21 35.8717 236.21 32.4858C236.21 32.4708 236.207 32.4557 236.207 32.4406C236.207 32.4254 236.21 32.4103 236.21 32.3952C236.21 29.0095 235.111 26.0447 233.147 23.8717C233.091 23.8085 233.038 23.743 232.982 23.68C232.887 23.5792 232.784 23.4858 232.686 23.3901C230.647 21.3506 227.801 20.0977 224.303 20.0977C224.246 20.0977 224.189 20.1027 224.133 20.1027C224.094 20.1027 224.06 20.0977 224.022 20.0977C220.805 20.0977 217.229 21.5901 215.15 24.0809L214.508 20.5565H209.779V20.5539ZM215.198 32.4406C215.198 28.1422 218.421 24.8523 222.951 24.8523C227.528 24.8523 230.797 28.006 230.797 32.4406C230.797 36.875 227.528 40.0287 222.951 40.0287C218.421 40.0312 215.198 36.7388 215.198 32.4406Z" fill="white"/>
<path d="M276.198 29.5059V44.337H270.867V30.8319C270.867 26.5285 268.622 24.605 265.628 24.605C262.542 24.605 260.205 26.6193 260.205 30.8319V44.337H254.874V30.8319C254.874 26.5285 252.583 24.605 249.682 24.605C246.549 24.605 244.212 26.6193 244.212 30.8319V44.337H238.835V20.579H243.525L244.132 24.005C245.535 21.5798 247.86 20.0773 251.461 20.0773C254.733 20.0773 257.415 21.3958 258.864 24.005C260.455 21.5798 263.103 20.0773 267.031 20.0773C272.504 20.0747 276.198 23.6925 276.198 29.5059Z" fill="white"/>
<path d="M27.7921 46.4165L18.3221 55.5122C17.6863 56.1223 17.6966 56.9039 17.9154 57.4333C18.1342 57.9627 18.6876 58.5274 19.5757 58.5299L36.2402 58.5828C37.5221 58.5879 38.5852 57.5695 38.6084 56.3114C38.6084 56.2458 38.6109 56.1779 38.6109 56.1098C38.6212 52.5349 37.1721 49.0358 34.6159 46.482C32.7498 44.6215 29.6918 44.5912 27.7921 46.4165Z" fill="#529FD7"/>
<path d="M16.9194 39.4992L3.65525 39.3732C2.7672 39.3656 2.20862 39.9227 1.98211 40.4497C1.75559 40.9765 1.73756 41.7581 2.36306 42.3757L14.1085 53.9521C15.0121 54.8421 16.4998 54.8572 17.4214 53.9875C17.4704 53.9421 17.5192 53.8942 17.5681 53.8462C20.1577 51.3253 21.6584 47.8488 21.6944 44.2715C21.7201 41.6648 19.5785 39.5245 16.9194 39.4992Z" fill="#529FD7"/>
<path d="M4.12152 37.6686C4.19102 37.6686 4.25793 37.6711 4.32743 37.6711C7.97748 37.6811 11.5503 36.2619 14.1578 33.7585C16.0574 31.9358 16.0858 28.9384 14.2247 27.0778L4.93749 17.803C4.31456 17.1803 3.5166 17.1905 2.97605 17.4047C2.43549 17.619 1.8589 18.1611 1.85632 19.0308L1.80227 35.3492C1.79712 36.6047 2.83705 37.6459 4.12152 37.6686Z" fill="#529FD7"/>
<path d="M6.64011 17.0649C9.2142 19.6011 12.7638 21.0708 16.4165 21.106C19.0755 21.1313 21.2609 19.0338 21.2866 16.4295L21.4153 3.43884C21.4231 2.56909 20.8542 2.02203 20.3162 1.80019C19.7782 1.57833 18.9802 1.56068 18.3496 2.1733L6.53201 13.6767C5.62336 14.5616 5.60791 16.0187 6.49597 16.9211C6.54488 16.9691 6.59121 17.017 6.64011 17.0649Z" fill="#529FD7"/>
<path d="M33.9677 13.7898L43.4377 4.69402C44.0735 4.08394 44.0633 3.30243 43.8444 2.77302C43.6257 2.24361 43.0723 1.67889 42.1841 1.67638L25.5221 1.62343C24.2403 1.6184 23.1771 2.63688 23.154 3.89486C23.154 3.96294 23.1514 4.02848 23.1514 4.09654C23.1411 7.67134 24.5904 11.1705 27.1464 13.7243C29.01 15.5847 32.0707 15.6125 33.9677 13.7898Z" fill="#529FD7"/>
<path d="M44.8427 20.7047L58.107 20.8307C58.995 20.8382 59.5536 20.2812 59.7801 19.7542C60.0066 19.2274 60.0247 18.4458 59.3991 17.8282L47.6537 6.25168C46.7501 5.36178 45.2623 5.34665 44.3408 6.2164C44.2918 6.26178 44.243 6.30967 44.1941 6.35757C41.6045 8.87857 40.1038 12.3551 40.0678 15.9323C40.0395 18.5415 42.1837 20.6794 44.8427 20.7047Z" fill="#529FD7"/>
<path d="M57.6429 22.5351C57.5733 22.5351 57.5065 22.5325 57.4369 22.5325C53.7869 22.5224 50.214 23.9418 47.6066 26.4451C45.7069 28.2678 45.6786 31.2653 47.5396 33.1259L56.8269 42.4005C57.4499 43.0232 58.2478 43.0132 58.7883 42.7989C59.3289 42.5846 59.9055 42.0426 59.908 41.1729L59.9622 24.8519C59.9646 23.5989 58.9247 22.5578 57.6429 22.5351Z" fill="#529FD7"/>
<path d="M55.1206 43.142C52.5466 40.6058 48.9969 39.136 45.3443 39.1007C42.6853 39.0755 40.4999 41.173 40.4742 43.7772L40.3455 56.7679C40.3378 57.6377 40.9066 58.1847 41.4446 58.4066C41.9826 58.6285 42.7806 58.6461 43.4112 58.0334L55.2313 46.5301C56.14 45.6453 56.1555 44.1882 55.2673 43.2856C55.2185 43.2377 55.1696 43.1872 55.1206 43.142Z" fill="#529FD7"/>
</svg>
