<svg width="250" height="53" viewBox="0 0 250 53" fill="none" xmlns="http://www.w3.org/2000/svg">
<g clip-path="url(#clip0_1_629)">
<path d="M53.9914 5.66809H31.0085V47.332H53.9914V5.66809Z" fill="#FF5F00"/>
<path d="M32.4677 26.5C32.4677 18.4028 36.1888 10.6736 42.4634 5.66808C31.0815 -3.38609 14.5922 -1.39859 5.61793 10.1584C-3.35631 21.6417 -1.38636 38.2778 10.0686 47.332C19.6265 54.9139 32.9784 54.9139 42.5364 47.332C36.1887 42.3264 32.4677 34.5972 32.4677 26.5Z" fill="#EB001B"/>
<path d="M85 26.5C85 41.1486 73.2532 53 58.7339 53C52.824 53 47.133 51.0125 42.5364 47.332C53.9184 38.2778 55.8884 21.6417 46.9141 10.0847C45.6008 8.4653 44.1416 6.91947 42.5364 5.66808C53.9184 -3.38609 70.4806 -1.39859 79.3819 10.1584C83.03 14.7959 85 20.5375 85 26.5Z" fill="#F79E1B"/>
<path d="M82.5193 42.9153V42.032H82.8841V41.8848H82.0085V42.032H82.3734V42.9153H82.5193ZM84.1974 42.9153V41.8848H83.9055L83.6137 42.6209L83.3218 41.8848H83.03V42.9153H83.2489V42.1056L83.5407 42.7681H83.7596L84.0515 42.1056V42.9153H84.1974Z" fill="#F79E1B"/>
</g>
<g clip-path="url(#clip1_1_629)">
<path d="M121.071 31.544V23.241C121.071 20.106 119.067 18.016 115.842 17.978C114.143 17.959 112.387 18.472 111.166 20.334C110.249 18.871 108.799 17.978 106.776 17.978C105.363 17.978 103.97 18.396 102.882 19.935V18.32H100V31.544H102.92V24.21C102.92 21.911 104.199 20.695 106.165 20.695C108.074 20.695 109.047 21.949 109.047 24.191V31.544H111.967V24.21C111.967 21.911 113.303 20.695 115.212 20.695C117.178 20.695 118.132 21.949 118.132 24.191V31.544H121.071ZM164.283 18.32H159.55V14.292H156.629V18.32H153.938V20.942H156.629V26.984C156.629 30.062 157.832 31.886 161.248 31.886C162.508 31.886 163.939 31.506 164.856 30.86L164.016 28.39C163.157 28.884 162.203 29.131 161.458 29.131C160.008 29.131 159.55 28.238 159.55 26.908V20.942H164.283V18.32ZM188.924 17.978C187.263 17.978 186.175 18.757 185.412 19.916V18.32H182.549V31.544H185.431V24.134C185.431 21.949 186.385 20.733 188.275 20.733C188.866 20.733 189.477 20.809 190.088 21.056L190.985 18.339C190.355 18.092 189.515 17.978 188.924 17.978ZM151.648 19.365C150.254 18.453 148.346 17.978 146.227 17.978C142.868 17.978 140.692 19.574 140.692 22.215C140.692 24.381 142.295 25.711 145.273 26.11L146.628 26.3C148.212 26.528 148.957 26.927 148.957 27.687C148.957 28.713 147.907 29.283 145.922 29.283C143.918 29.283 142.467 28.637 141.494 27.896L140.139 30.138C141.723 31.297 143.727 31.848 145.903 31.848C149.739 31.848 151.972 30.043 151.972 27.535C151.972 25.217 150.216 24.001 147.334 23.583L145.979 23.393C144.719 23.222 143.727 22.975 143.727 22.101C143.727 21.132 144.681 20.543 146.265 20.543C147.964 20.543 149.606 21.189 150.407 21.683L151.648 19.365ZM229.1 17.978C227.44 17.978 226.352 18.757 225.588 19.916V18.32H222.726V31.544H225.608V24.134C225.608 21.949 226.562 20.733 228.451 20.733C229.043 20.733 229.654 20.809 230.265 21.056L231.162 18.339C230.513 18.092 229.692 17.978 229.1 17.978ZM191.844 24.932C191.844 28.941 194.649 31.886 198.925 31.886C200.929 31.886 202.265 31.449 203.715 30.309L202.322 27.991C201.234 28.77 200.089 29.188 198.848 29.188C196.539 29.169 194.84 27.497 194.84 24.951C194.84 22.405 196.539 20.752 198.848 20.714C200.108 20.714 201.234 21.132 202.322 21.911L203.715 19.593C202.265 18.453 200.929 18.016 198.925 18.016C194.669 17.978 191.844 20.923 191.844 24.932ZM218.927 24.932V18.32H216.045V19.916C215.129 18.719 213.736 17.978 211.846 17.978C208.124 17.978 205.204 20.885 205.204 24.932C205.204 28.979 208.124 31.886 211.846 31.886C213.736 31.886 215.129 31.145 216.045 29.948V31.544H218.927V24.932ZM208.163 24.932C208.163 22.614 209.69 20.695 212.19 20.695C214.576 20.695 216.198 22.519 216.198 24.932C216.198 27.345 214.595 29.169 212.19 29.169C209.69 29.169 208.163 27.25 208.163 24.932ZM173.273 17.978C169.379 17.978 166.65 20.809 166.65 24.932C166.65 29.131 169.494 31.886 173.464 31.886C175.468 31.886 177.3 31.392 178.903 30.024L177.491 27.896C176.384 28.789 174.952 29.283 173.635 29.283C171.765 29.283 170.085 28.428 169.665 26.053H179.533C179.552 25.692 179.59 25.331 179.59 24.951C179.571 20.809 177.014 17.978 173.273 17.978ZM173.235 20.562C175.105 20.562 176.288 21.721 176.594 23.773H169.704C170.009 21.854 171.173 20.562 173.235 20.562ZM245.763 24.932V13H242.881V19.916C241.965 18.719 240.571 17.978 238.682 17.978C234.96 17.978 232.04 20.885 232.04 24.932C232.04 28.979 234.96 31.886 238.682 31.886C240.571 31.886 241.965 31.145 242.881 29.948V31.544H245.763V24.932ZM249.141 30.328C249.256 30.328 249.37 30.347 249.466 30.385C249.561 30.423 249.656 30.48 249.733 30.556C249.809 30.632 249.866 30.727 249.924 30.822C249.962 30.917 250 31.031 250 31.145C250 31.259 249.981 31.373 249.924 31.468C249.885 31.563 249.809 31.658 249.733 31.734C249.656 31.81 249.561 31.867 249.466 31.924C249.37 31.962 249.256 32 249.141 32C249.027 32 248.912 31.981 248.798 31.924C248.683 31.886 248.607 31.81 248.53 31.734C248.454 31.658 248.397 31.563 248.339 31.468C248.301 31.373 248.263 31.259 248.263 31.145C248.263 31.031 248.282 30.917 248.339 30.822C248.378 30.727 248.454 30.632 248.53 30.556C248.607 30.48 248.702 30.423 248.798 30.385C248.893 30.347 249.008 30.328 249.141 30.328ZM249.141 31.81C249.237 31.81 249.313 31.791 249.389 31.753C249.466 31.715 249.542 31.677 249.599 31.62C249.656 31.563 249.714 31.487 249.733 31.411C249.771 31.335 249.79 31.24 249.79 31.164C249.79 31.069 249.771 30.993 249.733 30.917C249.695 30.841 249.656 30.765 249.599 30.708C249.542 30.651 249.466 30.594 249.389 30.575C249.313 30.537 249.217 30.518 249.141 30.518C249.046 30.518 248.969 30.537 248.874 30.575C248.798 30.613 248.721 30.651 248.664 30.708C248.607 30.765 248.549 30.841 248.53 30.917C248.492 30.993 248.473 31.088 248.473 31.164C248.473 31.259 248.492 31.335 248.53 31.411C248.569 31.487 248.607 31.563 248.664 31.62C248.721 31.677 248.798 31.734 248.874 31.753C248.95 31.791 249.046 31.81 249.141 31.81ZM249.179 30.765C249.275 30.765 249.351 30.784 249.408 30.841C249.466 30.879 249.485 30.955 249.485 31.031C249.485 31.088 249.466 31.145 249.427 31.183C249.389 31.221 249.313 31.259 249.237 31.259L249.485 31.544H249.275L249.046 31.259H248.969V31.544H248.798V30.765H249.179ZM248.988 30.917V31.126H249.179C249.217 31.126 249.256 31.126 249.294 31.107C249.313 31.088 249.332 31.069 249.332 31.031C249.332 30.993 249.313 30.974 249.294 30.955C249.275 30.936 249.237 30.936 249.179 30.936H248.988V30.917ZM234.998 24.932C234.998 22.614 236.525 20.695 239.025 20.695C241.411 20.695 243.033 22.519 243.033 24.932C243.033 27.345 241.43 29.169 239.025 29.169C236.525 29.169 234.998 27.25 234.998 24.932ZM137.371 24.932V18.32H134.489V19.916C133.573 18.719 132.18 17.978 130.29 17.978C126.568 17.978 123.648 20.885 123.648 24.932C123.648 28.979 126.568 31.886 130.29 31.886C132.18 31.886 133.573 31.145 134.489 29.948V31.544H137.371V24.932ZM126.606 24.932C126.606 22.614 128.133 20.695 130.634 20.695C133.019 20.695 134.642 22.519 134.642 24.932C134.642 27.345 133.039 29.169 130.634 29.169C128.133 29.169 126.606 27.25 126.606 24.932Z" fill="white"/>
</g>
<defs>
<clipPath id="clip0_1_629">
<rect width="85" height="53" fill="white"/>
</clipPath>
<clipPath id="clip1_1_629">
<rect width="150" height="19" fill="white" transform="translate(100 13)"/>
</clipPath>
</defs>
</svg>
