<svg width="150" height="49" viewBox="0 0 150 49" fill="none" xmlns="http://www.w3.org/2000/svg">
<g clip-path="url(#clip0_1_74)">
<path d="M97.7316 0C87.0949 0 77.5448 5.53471 77.5448 15.6912C77.5448 27.3882 94.4148 28.1871 94.4148 34.0071C94.4148 36.4606 91.5555 38.6859 86.7518 38.6859C79.8894 38.6859 74.7427 35.6047 74.7427 35.6047L72.5696 45.8753C72.5696 45.8753 78.4598 48.5 86.3515 48.5C98.0175 48.5 107.167 42.7371 107.167 32.3524C107.167 20.0276 90.2402 19.2288 90.2402 13.8082C90.2402 11.8682 92.5848 9.75706 97.3885 9.75706C102.821 9.75706 107.282 11.9824 107.282 11.9824L109.455 2.05412C109.398 2.05412 104.537 0 97.7316 0ZM0.285932 0.741765L0 2.22529C0 2.22529 4.46054 3.02412 8.52078 4.67882C13.7247 6.56176 14.0679 7.64588 14.9828 11.0124L24.533 47.7012H37.3427L56.9577 0.741765H44.2051L31.5669 32.6947L26.4201 5.59176C25.9626 2.51059 23.5608 0.741765 20.5871 0.741765H0.285932ZM62.1045 0.741765L52.0968 47.7012H64.2775L74.228 0.741765H62.1045ZM129.928 0.741765C127.011 0.741765 125.467 2.28235 124.323 5.02118L106.481 47.7012H119.234L121.693 40.5688H137.247L138.734 47.7012H150L140.221 0.741765H129.928ZM131.586 13.4659L135.36 31.0971H125.238L131.586 13.4659Z" fill="white"/>
</g>
<defs>
<clipPath id="clip0_1_74">
<rect width="150" height="48.5" fill="white"/>
</clipPath>
</defs>
</svg>
